<?xml version="1.0" encoding="UTF-8" standalone="no"?>
<svg
   xmlns:dc="http://purl.org/dc/elements/1.1/"
   xmlns:cc="http://creativecommons.org/ns#"
   xmlns:rdf="http://www.w3.org/1999/02/22-rdf-syntax-ns#"
   xmlns:svg="http://www.w3.org/2000/svg"
   xmlns="http://www.w3.org/2000/svg"
   xmlns:sodipodi="http://sodipodi.sourceforge.net/DTD/sodipodi-0.dtd"
   xmlns:inkscape="http://www.inkscape.org/namespaces/inkscape"
   version="1"
   viewBox="0 0 48 48"
   enable-background="new 0 0 48 48"
   id="svg12"
   sodipodi:docname="webcam_off.svg"
   inkscape:version="0.92.1 r15371">
  <metadata
     id="metadata18">
    <rdf:RDF>
      <cc:Work
         rdf:about="">
        <dc:format>image/svg+xml</dc:format>
        <dc:type
           rdf:resource="http://purl.org/dc/dcmitype/StillImage" />
      </cc:Work>
    </rdf:RDF>
  </metadata>
  <defs
     id="defs16" />
  <sodipodi:namedview
     pagecolor="#ffffff"
     bordercolor="#666666"
     borderopacity="1"
     objecttolerance="10"
     gridtolerance="10"
     guidetolerance="10"
     inkscape:pageopacity="0"
     inkscape:pageshadow="2"
     inkscape:window-width="1920"
     inkscape:window-height="1147"
     id="namedview14"
     showgrid="false"
     inkscape:zoom="4.9166667"
     inkscape:cx="24"
     inkscape:cy="24"
     inkscape:window-x="-8"
     inkscape:window-y="-8"
     inkscape:window-maximized="1"
     inkscape:current-layer="svg12" />
  <path
     fill="#455A64"
     d="M36.5,44H11.5c-1.1,0-1.8-1.2-1.3-2.2L13,37h22l2.7,4.8C38.3,42.8,37.6,44,36.5,44z"
     id="path2" />
  <circle
     fill="#78909C"
     cx="24"
     cy="23"
     r="18"
     id="circle4" />
  <path
     fill="#455A64"
     d="M24,35c-6.6,0-12-5.4-12-12c0-6.6,5.4-12,12-12s12,5.4,12,12C36,29.6,30.6,35,24,35z"
     id="path6" />
  <circle
     fill="#FFFFFF"
     cx="24"
     cy="23"
     r="9"
     id="circle8"
     style="fill:#000000;fill-opacity:1" />
  <path
     fill="#90CAF9"
     d="M28.8,20c-1.2-1.4-3-2.2-4.8-2.2s-3.6,0.8-4.8,2.2c-0.5,0.5-0.4,1.3,0.1,1.8c0.5,0.5,1.3,0.4,1.8-0.1 c1.5-1.7,4.3-1.7,5.8,0c0.3,0.3,0.6,0.4,1,0.4c0.3,0,0.6-0.1,0.9-0.3C29.2,21.4,29.3,20.5,28.8,20z"
     id="path10"
     style="fill:#ffffff;fill-opacity:1" />
</svg>
